HIERARCHY
ROOT root
{
	OFFSET 0.000000 0.000000 0.000000
	CHANNELS 6 Xposition Yposition Zposition Zrotation Yrotation Xrotation
	JOINT lhip
	{
		OFFSET 0.058581 -0.082280 -0.017664
		CHANNELS 3 Zrotation Yrotation Xrotation
		JOINT lknee
		{
			OFFSET 0.043451 -0.386469 0.008037
			CHANNELS 3 Zrotation Yrotation Xrotation
			JOINT lankle
			{
				OFFSET -0.014790 -0.426874 -0.037428
				CHANNELS 3 Zrotation Yrotation Xrotation
				JOINT ltoe
				{
					OFFSET 0.041054 -0.060286 0.122042
					CHANNELS 3 Zrotation Yrotation Xrotation
					End Site
					{
						OFFSET 0.000000 0.000000 0.000000
					}
				}
			}
		}
	}
	JOINT rhip
	{
		OFFSET -0.060310 -0.090513 -0.013543
		CHANNELS 3 Zrotation Yrotation Xrotation
		JOINT rknee
		{
			OFFSET -0.043257 -0.383688 -0.004843
			CHANNELS 3 Zrotation Yrotation Xrotation
			JOINT rankle
			{
				OFFSET 0.019056 -0.420046 -0.034562
				CHANNELS 3 Zrotation Yrotation Xrotation
				JOINT rtoe
				{
					OFFSET -0.034840 -0.062106 0.130323
					CHANNELS 3 Zrotation Yrotation Xrotation
					End Site
					{
						OFFSET 0.000000 0.000000 0.000000
					}
				}
			}
		}
	}
	JOINT lowerback
	{
		OFFSET 0.004439 0.124404 -0.038385
		CHANNELS 3 Zrotation Yrotation Xrotation
		JOINT upperback
		{
			OFFSET 0.004488 0.137956 0.026820
			CHANNELS 3 Zrotation Yrotation Xrotation
			JOINT chest
			{
				OFFSET -0.002265 0.056032 0.002855
				CHANNELS 3 Zrotation Yrotation Xrotation
				JOINT lowerneck
				{
					OFFSET -0.013390 0.211636 -0.033468
					CHANNELS 3 Zrotation Yrotation Xrotation
					JOINT upperneck
					{
						OFFSET 0.010113 0.088937 0.050410
						CHANNELS 3 Zrotation Yrotation Xrotation
						End Site
						{
							OFFSET 0.000000 0.000000 0.000000
						}
					}
				}
				JOINT lclavicle
				{
					OFFSET 0.071702 0.114000 -0.018898
					CHANNELS 3 Zrotation Yrotation Xrotation
					JOINT lshoulder
					{
						OFFSET 0.122921 0.045205 -0.019046
						CHANNELS 3 Zrotation Yrotation Xrotation
						JOINT lelbow
						{
							OFFSET 0.255332 -0.015649 -0.022946
							CHANNELS 3 Zrotation Yrotation Xrotation
							JOINT lwrist
							{
								OFFSET 0.265709 0.012698 -0.007375
								CHANNELS 3 Zrotation Yrotation Xrotation
								End Site
								{
									OFFSET 0.000000 0.000000 0.000000
								}
							}
						}
					}
				}
				JOINT rclavicle
				{
					OFFSET -0.082954 0.112472 -0.023707
					CHANNELS 3 Zrotation Yrotation Xrotation
					JOINT rshoulder
					{
						OFFSET -0.113228 0.046853 -0.008472
						CHANNELS 3 Zrotation Yrotation Xrotation
						JOINT relbow
						{
							OFFSET -0.260127 -0.014369 -0.031269
							CHANNELS 3 Zrotation Yrotation Xrotation
							JOINT rwrist
							{
								OFFSET -0.269108 0.006794 -0.006027
								CHANNELS 3 Zrotation Yrotation Xrotation
								End Site
								{
									OFFSET 0.000000 0.000000 0.000000
								}
							}
						}
					}
				}
			}
		}
	}
}
MOTION
Frames: 17
Frame Time: 0.033333
-0.966991 0.197046 1.019824 -54.394613 -3.806118 85.053094 -6.385606 -2.413673 1.306162 -2.351913 -9.297959 12.547071 7.039422 20.295548 -12.016030 0.000000 -0.000000 0.000000 -5.088097 -1.222783 -12.755066 1.847735 -0.724782 66.824434 7.723864 -12.770266 -3.158233 0.000000 -0.000000 0.000000 -2.577778 -3.172907 16.305802 -1.765314 -1.995566 -12.366148 -0.212967 -2.602361 2.372034 -2.716060 1.028223 -2.273080 2.144764 12.955387 -0.688318 -21.489167 8.307425 -2.499777 -44.318842 1.507538 10.140717 -3.594019 -55.334493 12.006733 5.172421 -11.564483 -9.682775 18.263705 -6.973280 -5.900389 47.348050 -20.966312 20.924759 8.926728 38.020219 14.760014 8.478231 3.087444 6.585997 
-0.995082 0.171745 1.025190 -52.238880 -3.398798 84.524694 -6.068993 -1.305502 6.097822 -1.934946 -12.538704 8.999748 6.114387 19.880062 -12.374742 0.000000 -0.000000 0.000000 -4.329393 -0.838716 -17.055883 1.682829 -3.256047 62.859133 8.142574 -12.672153 -4.821320 0.000000 -0.000000 0.000000 -2.248297 -4.933007 16.264376 -1.449104 -1.613860 -11.975303 0.116168 -2.780640 2.696031 -2.984670 1.352564 -1.645919 2.023723 11.904443 -1.095287 -20.941819 8.542989 -2.596980 -44.597494 0.164552 11.445451 -2.897924 -59.521792 10.937058 7.064589 -11.547471 -11.293237 18.083907 -7.204120 -5.833275 47.640208 -21.091778 21.284114 9.323019 38.293356 15.462748 8.364197 3.170977 6.353240 
-1.022804 0.147728 1.025429 -50.470051 -2.872712 83.916108 -5.071084 0.782498 10.264935 -1.494542 -14.656707 6.420618 5.335432 18.757805 -13.599788 0.000000 -0.000000 0.000000 -3.677934 -1.104000 -20.648056 1.711046 -4.197812 56.779373 8.712957 -12.448508 -6.134944 0.000000 -0.000000 0.000000 -1.708672 -6.378389 16.776152 -1.285603 -1.269638 -11.572654 0.486932 -2.997348 2.629843 -3.157970 0.955127 -1.865804 2.037033 11.398007 -0.811476 -20.246847 8.757300 -2.402766 -44.623097 -0.877699 12.030531 -4.037986 -64.173139 12.149513 8.729411 -11.877971 -13.315441 17.926394 -7.164852 -5.753854 47.790773 -21.248930 21.332082 9.782651 39.188125 15.627818 8.318170 3.313376 6.409696 
-1.049944 0.125140 1.021666 -48.519828 -2.644967 83.433654 -4.097652 1.852034 13.570939 -1.421090 -16.711008 5.077176 4.574283 17.897802 -15.345415 0.000000 -0.000000 0.000000 -3.712046 -1.565032 -23.087904 1.389574 -4.790437 47.939980 9.697360 -12.440025 -6.592675 0.000000 -0.000000 0.000000 -1.380937 -7.082252 17.453091 -1.121210 -1.353631 -11.393864 0.874311 -3.390104 2.848107 -3.188577 0.875683 -2.601750 1.813923 10.461486 -0.475852 -19.766320 8.949072 -2.429394 -44.258328 -2.252697 12.904359 -6.087999 -68.159288 14.331490 10.884524 -11.663423 -14.309061 17.950759 -7.453042 -5.818026 47.796327 -20.747277 21.651149 10.516474 39.989716 15.938448 7.054724 3.225472 6.436182 
-1.077839 0.103713 1.015245 -46.694604 -2.725063 83.219748 -3.113604 2.814305 15.761793 -1.783475 -17.896110 5.317171 3.824206 16.524144 -16.889332 0.000000 -0.000000 0.000000 -3.949378 -2.083849 -24.475449 0.615454 -3.947404 37.575512 11.013051 -11.362198 -2.716942 0.000000 -0.000000 0.000000 -1.402663 -7.081844 17.360293 -0.917397 -1.637011 -10.388217 1.288365 -3.692839 2.625132 -3.225115 0.362235 -2.891120 1.739745 9.351053 -0.157467 -19.560815 8.665790 -2.434907 -43.777508 -3.027623 13.408679 -7.811529 -71.567333 16.619595 10.836955 -12.992491 -14.646872 18.564189 -7.602037 -5.888192 47.607559 -20.508456 21.757258 10.326762 40.789104 15.781295 7.640349 2.956646 6.832541 
-1.107818 0.081818 1.007507 -45.075526 -2.756936 83.099092 -1.935635 3.825592 17.576803 -2.138769 -18.895347 6.383672 3.388618 15.292331 -19.136066 0.000000 -0.000000 0.000000 -3.661535 -2.797507 -24.948180 -0.709132 -1.728557 27.278621 10.395345 -11.372558 2.245428 0.000000 -0.000000 0.000000 -1.104425 -6.735503 16.824558 -0.815391 -1.737846 -9.765903 1.452651 -4.133362 3.147325 -3.777531 -0.465367 -3.671992 2.356847 8.574879 0.326235 -19.284460 8.601924 -1.761452 -43.612046 -4.361669 13.142828 -11.517721 -73.809399 21.180300 11.935787 -13.652567 -14.339095 18.957303 -7.966985 -5.838370 47.895740 -19.834814 21.520478 9.943795 41.285826 15.680211 7.467981 2.913473 7.138184 
-1.139087 0.059810 0.999305 -42.948703 -3.115591 83.377032 -0.946468 4.297717 18.718599 -2.447530 -19.826268 7.886415 2.863320 13.722166 -20.511476 0.000000 -0.000000 0.000000 -4.264733 -3.967522 -25.568980 -2.276629 -1.102825 19.227074 12.598811 -11.883350 7.825379 0.000000 -0.000000 0.000000 -1.221455 -6.473672 15.655720 -0.623703 -2.045032 -9.164117 1.504729 -4.470058 3.493902 -3.843353 -0.989864 -3.670012 2.355810 7.471980 0.425509 -19.080923 9.059392 -0.912846 -43.466853 -5.680760 13.206640 -15.305880 -75.077588 26.034282 11.736956 -14.309613 -14.537087 19.503970 -8.533117 -5.843399 47.892706 -19.090811 21.912342 9.698518 41.613205 15.583260 7.431254 2.581646 7.365806 
-1.172318 0.037961 0.991873 -40.402485 -3.371772 83.691735 0.772523 4.595358 19.344466 -3.489904 -21.068947 10.140122 1.812450 12.671467 -20.935740 0.000000 -0.000000 0.000000 -5.449360 -4.531688 -25.530053 -2.792192 0.335170 13.600513 16.160272 -10.027191 17.568518 0.000000 -0.000000 0.000000 -1.366391 -6.478732 13.695997 -0.307884 -2.377108 -7.547999 1.577397 -4.447748 3.153044 -3.978907 -2.360763 -2.939750 2.260674 6.289222 0.542685 -19.144024 9.167454 -1.203738 -43.664787 -5.654170 13.304791 -21.104604 -74.571850 32.132998 10.530913 -15.025243 -13.179643 19.988712 -9.198585 -5.367311 47.710325 -18.225437 21.426776 10.426332 41.872563 16.375635 8.373094 2.149962 7.800186 
-1.207500 0.015038 0.985424 -37.359997 -3.592705 83.506697 1.813354 3.285559 20.372970 -4.272461 -22.757230 12.965515 0.466674 11.643221 -21.558475 0.000000 -0.000000 0.000000 -7.445682 -3.943398 -25.275348 -2.692783 -0.793890 14.021834 20.221097 -11.023996 22.050664 0.000000 -0.000000 0.000000 -1.593593 -7.237472 12.712213 -0.062333 -2.480087 -6.990609 1.292688 -4.685072 3.101149 -3.475088 -2.525293 -2.244170 1.918032 5.218704 -0.033493 -19.304847 9.953757 -0.224743 -44.063383 -5.622434 13.750864 -20.827730 -74.008534 32.591829 10.047365 -15.559359 -12.298970 20.394362 -9.493424 -5.316052 47.623174 -17.788812 22.263819 10.698610 42.124134 16.719852 8.077169 2.308026 7.553306 
-1.245532 -0.007229 0.979350 -34.715641 -3.043533 83.279857 3.311331 1.673558 21.144494 -5.396653 -24.042980 16.652267 0.000383 12.730350 -22.269841 0.000000 -0.000000 0.000000 -8.312105 -1.560005 -24.772786 -0.990619 1.402372 18.641853 16.960262 -10.076625 16.855653 0.000000 -0.000000 0.000000 -1.151885 -8.048041 11.931089 0.293347 -2.145417 -6.482064 0.959126 -4.583059 2.758221 -3.280309 -2.893893 -2.079416 1.175945 4.389731 -0.275759 -19.511785 10.318431 0.056285 -44.257736 -4.610169 13.984993 -22.514910 -72.301792 35.062004 9.707370 -15.147354 -13.388845 20.616113 -9.604714 -5.537229 47.559773 -18.333228 22.192329 11.419777 42.909231 18.779987 8.166644 2.499210 6.050930 
-1.283897 -0.026869 0.973005 -32.542192 -1.837666 82.868053 5.596102 1.325167 21.257728 -5.893238 -23.353320 21.775047 -0.049501 12.736890 -21.692797 0.000000 -0.000000 0.000000 -7.300873 -0.184305 -25.565199 0.866288 0.381560 27.386190 11.356650 -8.685454 7.254890 0.000000 -0.000000 0.000000 -0.395967 -8.740992 11.373680 1.239777 -1.238695 -4.595454 -0.001433 -4.606279 0.989249 -1.302453 -1.327538 -1.904617 -0.760237 0.842516 0.356042 -20.440717 11.732886 1.629789 -43.683311 -5.208475 13.590085 -22.662240 -69.942395 36.788505 8.548830 -14.857862 -15.683144 22.519466 -11.196653 -3.297739 45.693161 -15.817766 21.449508 13.393986 44.175026 25.461049 7.316928 4.365906 -0.895534 
-1.317999 -0.044390 0.968832 -31.601092 -1.407756 82.473879 6.784466 1.459263 21.555224 -6.269668 -21.198381 25.627522 0.054924 13.469798 -19.688097 0.000000 -0.000000 0.000000 -6.265541 -0.563422 -26.299630 1.685427 -1.415637 33.704699 9.548526 -9.074718 1.436781 0.000000 -0.000000 0.000000 -0.225829 -8.391711 11.599642 1.487709 -0.755760 -4.008490 0.115317 -4.551740 0.694433 -1.235224 -1.535788 -2.631584 -1.344875 0.340881 0.820170 -21.719891 11.896429 1.389948 -44.514372 -3.847853 13.349301 -18.647143 -66.666000 33.444984 8.390901 -13.970514 -14.333304 23.040216 -10.062410 -3.175790 44.667622 -14.836665 21.334826 14.702372 44.258958 26.375146 5.889906 4.799474 -1.716385 
-1.349175 -0.060643 0.966570 -29.621461 -1.427348 82.569047 8.203930 2.762316 19.967954 -6.300911 -18.413709 30.297776 0.462164 14.113914 -17.087404 0.000000 -0.000000 0.000000 -5.755249 -1.711285 -24.419168 2.390014 -2.453278 35.028480 6.590331 -9.243309 -4.080035 0.000000 -0.000000 0.000000 -0.303706 -7.790766 11.002310 1.700679 -1.008998 -3.841120 0.198830 -4.607551 0.533343 -0.624338 -4.601551 -1.695418 -2.201424 -1.666828 1.481230 -22.151602 12.130148 2.227150 -46.110010 -3.354645 12.257370 -16.550818 -62.328765 32.374706 6.914378 -12.801720 -12.184889 22.328046 -9.587244 -2.783756 44.891921 -13.421362 20.335491 15.445493 43.651020 27.834265 6.720014 4.866942 -1.616560 
-1.375904 -0.072447 0.967367 -26.939086 -1.852177 83.220628 8.484783 3.437576 16.572722 -5.074404 -13.991665 34.666898 -0.398669 14.576072 -14.708979 0.000000 -0.000000 0.000000 -5.066739 -2.372309 -23.467993 1.737408 -2.385616 35.867677 4.925444 -10.391765 -7.945582 0.000000 -0.000000 0.000000 -0.640337 -6.965030 10.685538 1.583245 -1.604004 -4.246581 0.086566 -4.753361 0.616280 -1.058472 -2.891133 -2.837153 -1.803706 -0.652866 1.621645 -22.423009 11.955717 1.581249 -46.760013 -2.212305 11.739570 -16.064354 -57.780855 32.284479 4.236080 -12.256024 -10.291096 22.978145 -9.174153 -3.176040 44.130796 -12.600188 20.094978 14.983562 44.391862 27.896488 7.831572 4.617331 -1.741651 
-1.397145 -0.082839 0.972658 -24.830722 -1.672357 83.270359 7.811554 2.793977 13.851373 -4.405469 -10.903656 37.880119 -0.517693 15.061660 -13.678539 0.000000 -0.000000 0.000000 -4.832592 -1.867677 -22.004411 1.595713 -3.825536 36.127595 4.560695 -10.919041 -8.817363 0.000000 -0.000000 0.000000 0.208631 -6.581908 11.781496 1.417288 -1.728585 -4.883808 -0.228657 -4.537160 0.218472 -1.386817 -3.449023 -3.147787 -2.063849 -1.232899 1.478939 -23.387129 11.706198 1.242287 -47.177668 -1.210647 11.473380 -14.358821 -53.453976 31.178207 1.619014 -12.091331 -8.695905 23.158229 -8.576890 -3.247309 43.465369 -11.416551 19.639983 13.884792 44.978244 26.731616 7.319515 4.825421 -1.827785 
-1.414367 -0.091785 0.980508 -23.561307 -2.000572 83.330592 6.004668 2.330617 11.595259 -5.626223 -10.191954 38.821081 -1.126840 13.075991 -15.119284 0.000000 -0.000000 0.000000 -4.625104 -2.250128 -19.779024 1.472880 -4.295290 34.070621 4.452360 -11.172627 -9.947712 0.000000 -0.000000 0.000000 0.895563 -5.422196 12.760101 1.132821 -1.664214 -5.375672 -0.534603 -4.160757 -0.092022 -1.899844 -3.945728 -3.285097 -2.164328 -1.580742 1.251145 -23.566496 10.651093 1.464785 -48.180133 -0.281484 11.372558 -12.080627 -48.572268 29.332329 -0.322250 -12.621289 -8.073796 22.686765 -7.672530 -3.213199 43.534865 -10.806474 18.802603 11.777022 45.595640 24.511769 6.998733 5.060449 -2.974693 
-1.429836 -0.097883 0.986865 -22.440566 -2.631078 84.082075 4.157414 2.383385 8.666441 -6.543653 -8.669110 37.504359 -2.084835 12.227449 -15.747454 0.000000 -0.000000 0.000000 -3.714574 -2.970054 -17.786549 0.329397 -3.880595 30.732997 3.588093 -11.792698 -10.643703 0.000000 -0.000000 0.000000 0.777428 -3.812053 12.459088 0.984388 -1.710585 -5.161939 -0.478465 -3.714012 -0.174988 -2.230668 -3.893436 -3.582104 -2.184840 -2.151008 1.136254 -23.160902 9.785690 1.759400 -48.939747 1.124653 11.207630 -11.093724 -45.951416 29.103118 -2.506083 -12.203711 -8.402553 21.667234 -7.070852 -2.763450 43.572267 -9.936403 17.942360 10.268897 46.964416 23.229794 7.349412 4.913146 -4.810627 
